# xmcd
#
# Track frame offsets: 
#        150
#        12845
#        25997
#        43303
#        54140
#        68562
#        89594
#        100171
#        113257
#        126105
#        136733
#        147902
#        158342
#        171260
#        184696
#        194354
#        219530
#        231819
#        243464
#        253778
#        265524
#        287070
#        297053
#        313045
#        334403
#
# Disc length: 4705 seconds
#
# Revision: 4
# Processed by: cddbd v1.5.2PL0 Copyright (c) Steve Scherf et al.
# Submitted via: ExactAudioCopy v0.99pb5
#
DISCID=60125f19
DTITLE=Alexis Korner - kornerstoned - The Early Years 1954-1969
DYEAR=2006
DGENRE=Blues
TTITLE0=Ken Colyer Skiffle Group - Midnight Special
TTITLE1=AK's Breakdown Group - Roundhouse Stomp
TTITLE2=AK's Breakdown Group - Rotten Break
TTITLE3=AK's Skiffle Group - Kid Man
TTITLE4=AK's Skiffle Group - County Jail
TTITLE5=AK's  and Davey Graham Group - 3/4 A.D.
TTITLE6=Blues Incorporated - She Fooled Me
TTITLE7=AK's Blues Incorporated - I Wanna Put A Tiger In Your Tank
TTITLE8=AK's Blues Incorporated - Rain Is Such A Lonesome Sound
TTITLE9=Nancy Spain with AK and his Band - Blaydon Races
TTITLE10=Blues Incorporated - Up-Town
TTITLE11=See See Rider
TTITLE12=AK's All Stars - Blues A La King
TTITLE13=AK's Blues Incorporated - Sappho
TTITLE14=AK's Blues Incorporated - Taboo Man
TTITLE15=AK's Blues Incorporated - I'm Your Hoochie Coochie Man
TTITLE16=AK's Blues Incorporated - Woke Up This Morning
TTITLE17=AK's Blues Inc - Please, Please, Please
TTITLE18=AK's Blues Inc - I Need Your Loving
TTITLE19=AK's Blues Inc - Big Road Blues
TTITLE20=AK's Blues Inc - Louise
TTITLE21=Free At Last - Rosie
TTITLE22=Mary, Open The Door
TTITLE23=AK and Robert Plant - Steal Away
TTITLE24=New Church - Mighty-Mighty Spade and Whitey
EXTD=YEAR: 2006
EXTT0=
EXTT1=
EXTT2=
EXTT3=
EXTT4=
EXTT5=
EXTT6=
EXTT7=
EXTT8=
EXTT9=
EXTT10=
EXTT11=
EXTT12=
EXTT13=
EXTT14=
EXTT15=
EXTT16=
EXTT17=
EXTT18=
EXTT19=
EXTT20=
EXTT21=
EXTT22=
EXTT23=
EXTT24=
PLAYORDER=
